<svg xmlns="http://www.w3.org/2000/svg" xmlns:xlink="http://www.w3.org/1999/xlink" viewBox="0 0 256 256" width="256" height="256" preserveAspectRatio="xMidYMid meet" style="width: 100%; height: 100%; transform: translate3d(0px, 0px, 0px); content-visibility: visible;"><defs><clipPath id="__lottie_element_85"><rect width="256" height="256" x="0" y="0"></rect></clipPath></defs><g clip-path="url(#__lottie_element_85)"><g transform="matrix(0.9753557443618774,0,0,0.9753557443618774,128,128)" opacity="1" style="display: block;"><g opacity="1" transform="matrix(1,0,0,1,0,0)"><path fill="rgb(255,255,255)" fill-opacity="1" d=" M-13.855999946594238,-8 C-13.855999946594238,-8 0,0 0,0 C0,0 0,16 0,16 C0,16 -13.855999946594238,8 -13.855999946594238,8 C-13.855999946594238,8 -13.855999946594238,-8 -13.855999946594238,-8z"></path><path stroke-linecap="round" stroke-linejoin="round" fill-opacity="0" stroke="rgb(0,0,0)" stroke-opacity="1" stroke-width="3" d=" M-13.855999946594238,-8 C-13.855999946594238,-8 0,0 0,0 C0,0 0,16 0,16 C0,16 -13.855999946594238,8 -13.855999946594238,8 C-13.855999946594238,8 -13.855999946594238,-8 -13.855999946594238,-8z"></path></g><g opacity="1" transform="matrix(1,0,0,1,0,0)"><path fill="rgb(255,255,255)" fill-opacity="1" d=" M13.855999946594238,-8 C13.855999946594238,-8 0,0 0,0 C0,0 0,16 0,16 C0,16 13.855999946594238,8 13.855999946594238,8 C13.855999946594238,8 13.855999946594238,-8 13.855999946594238,-8z"></path><path stroke-linecap="round" stroke-linejoin="round" fill-opacity="0" stroke="rgb(0,0,0)" stroke-opacity="1" stroke-width="3" d=" M13.855999946594238,-8 C13.855999946594238,-8 0,0 0,0 C0,0 0,16 0,16 C0,16 13.855999946594238,8 13.855999946594238,8 C13.855999946594238,8 13.855999946594238,-8 13.855999946594238,-8z"></path></g><g opacity="1" transform="matrix(1,0,0,1,0,0)"><path fill="rgb(255,255,255)" fill-opacity="1" d=" M0,-16 C0,-16 -13.855999946594238,-8 -13.855999946594238,-8 C-13.855999946594238,-8 0,0 0,0 C0,0 13.855999946594238,-8 13.855999946594238,-8 C13.855999946594238,-8 0,-16 0,-16z"></path><path stroke-linecap="round" stroke-linejoin="round" fill-opacity="0" stroke="rgb(0,0,0)" stroke-opacity="1" stroke-width="3" d=" M0,-16 C0,-16 -13.855999946594238,-8 -13.855999946594238,-8 C-13.855999946594238,-8 0,0 0,0 C0,0 13.855999946594238,-8 13.855999946594238,-8 C13.855999946594238,-8 0,-16 0,-16z"></path></g></g><g transform="matrix(0.9987657070159912,0,0,0.9987657070159912,127.9743423461914,128.0148162841797)" opacity="1" style="display: block;"><g opacity="1" transform="matrix(1,0,0,1,0,0)"><path fill="rgb(255,255,255)" fill-opacity="1" d=" M-34.64099884033203,4 C-34.64099884033203,4 -20.78499984741211,12 -20.78499984741211,12 C-20.78499984741211,12 -20.78499984741211,28 -20.78499984741211,28 C-20.78499984741211,28 -34.64099884033203,20 -34.64099884033203,20 C-34.64099884033203,20 -34.64099884033203,4 -34.64099884033203,4z"></path><path stroke-linecap="round" stroke-linejoin="round" fill-opacity="0" stroke="rgb(0,0,0)" stroke-opacity="1" stroke-width="3" d=" M-34.64099884033203,4 C-34.64099884033203,4 -20.78499984741211,12 -20.78499984741211,12 C-20.78499984741211,12 -20.78499984741211,28 -20.78499984741211,28 C-20.78499984741211,28 -34.64099884033203,20 -34.64099884033203,20 C-34.64099884033203,20 -34.64099884033203,4 -34.64099884033203,4z"></path></g><g opacity="1" transform="matrix(1,0,0,1,0,0)"><path fill="rgb(255,255,255)" fill-opacity="1" d=" M-6.927999973297119,4 C-6.927999973297119,4 -20.78499984741211,12 -20.78499984741211,12 C-20.78499984741211,12 -20.78499984741211,28 -20.78499984741211,28 C-20.78499984741211,28 -6.927999973297119,20 -6.927999973297119,20 C-6.927999973297119,20 -6.927999973297119,4 -6.927999973297119,4z"></path><path stroke-linecap="round" stroke-linejoin="round" fill-opacity="0" stroke="rgb(0,0,0)" stroke-opacity="1" stroke-width="3" d=" M-6.927999973297119,4 C-6.927999973297119,4 -20.78499984741211,12 -20.78499984741211,12 C-20.78499984741211,12 -20.78499984741211,28 -20.78499984741211,28 C-20.78499984741211,28 -6.927999973297119,20 -6.927999973297119,20 C-6.927999973297119,20 -6.927999973297119,4 -6.927999973297119,4z"></path></g><g opacity="1" transform="matrix(1,0,0,1,0,0)"><path fill="rgb(255,255,255)" fill-opacity="1" d=" M-20.78499984741211,-4 C-20.78499984741211,-4 -34.64099884033203,4 -34.64099884033203,4 C-34.64099884033203,4 -20.78499984741211,12 -20.78499984741211,12 C-20.78499984741211,12 -6.927999973297119,4 -6.927999973297119,4 C-6.927999973297119,4 -20.78499984741211,-4 -20.78499984741211,-4z"></path><path stroke-linecap="round" stroke-linejoin="round" fill-opacity="0" stroke="rgb(0,0,0)" stroke-opacity="1" stroke-width="3" d=" M-20.78499984741211,-4 C-20.78499984741211,-4 -34.64099884033203,4 -34.64099884033203,4 C-34.64099884033203,4 -20.78499984741211,12 -20.78499984741211,12 C-20.78499984741211,12 -6.927999973297119,4 -6.927999973297119,4 C-6.927999973297119,4 -20.78499984741211,-4 -20.78499984741211,-4z"></path></g></g><g transform="matrix(0.9999952912330627,0,0,0.9999952912330627,127.99980163574219,128.00010681152344)" opacity="1" style="display: block;"><g opacity="1" transform="matrix(1,0,0,1,0,0)"><path fill="rgb(255,255,255)" fill-opacity="1" d=" M-55.42599868774414,16 C-55.42599868774414,16 -41.569000244140625,24 -41.569000244140625,24 C-41.569000244140625,24 -41.569000244140625,40 -41.569000244140625,40 C-41.569000244140625,40 -55.42599868774414,32 -55.42599868774414,32 C-55.42599868774414,32 -55.42599868774414,16 -55.42599868774414,16z"></path><path stroke-linecap="round" stroke-linejoin="round" fill-opacity="0" stroke="rgb(0,0,0)" stroke-opacity="1" stroke-width="3" d=" M-55.42599868774414,16 C-55.42599868774414,16 -41.569000244140625,24 -41.569000244140625,24 C-41.569000244140625,24 -41.569000244140625,40 -41.569000244140625,40 C-41.569000244140625,40 -55.42599868774414,32 -55.42599868774414,32 C-55.42599868774414,32 -55.42599868774414,16 -55.42599868774414,16z"></path></g><g opacity="1" transform="matrix(1,0,0,1,0,0)"><path fill="rgb(255,255,255)" fill-opacity="1" d=" M-27.71299934387207,16 C-27.71299934387207,16 -41.569000244140625,24 -41.569000244140625,24 C-41.569000244140625,24 -41.569000244140625,40 -41.569000244140625,40 C-41.569000244140625,40 -27.71299934387207,32 -27.71299934387207,32 C-27.71299934387207,32 -27.71299934387207,16 -27.71299934387207,16z"></path><path stroke-linecap="round" stroke-linejoin="round" fill-opacity="0" stroke="rgb(0,0,0)" stroke-opacity="1" stroke-width="3" d=" M-27.71299934387207,16 C-27.71299934387207,16 -41.569000244140625,24 -41.569000244140625,24 C-41.569000244140625,24 -41.569000244140625,40 -41.569000244140625,40 C-41.569000244140625,40 -27.71299934387207,32 -27.71299934387207,32 C-27.71299934387207,32 -27.71299934387207,16 -27.71299934387207,16z"></path></g><g opacity="1" transform="matrix(1,0,0,1,0,0)"><path fill="rgb(255,255,255)" fill-opacity="1" d=" M-41.569000244140625,8 C-41.569000244140625,8 -55.42599868774414,16 -55.42599868774414,16 C-55.42599868774414,16 -41.569000244140625,24 -41.569000244140625,24 C-41.569000244140625,24 -27.71299934387207,16 -27.71299934387207,16 C-27.71299934387207,16 -41.569000244140625,8 -41.569000244140625,8z"></path><path stroke-linecap="round" stroke-linejoin="round" fill-opacity="0" stroke="rgb(0,0,0)" stroke-opacity="1" stroke-width="3" d=" M-41.569000244140625,8 C-41.569000244140625,8 -55.42599868774414,16 -55.42599868774414,16 C-55.42599868774414,16 -41.569000244140625,24 -41.569000244140625,24 C-41.569000244140625,24 -27.71299934387207,16 -27.71299934387207,16 C-27.71299934387207,16 -41.569000244140625,8 -41.569000244140625,8z"></path></g></g><g transform="matrix(0.9999999403953552,0,0,0.9999999403953552,128,128)" opacity="1" style="display: block;"><g opacity="1" transform="matrix(1,0,0,1,0,0)"><path fill="rgb(255,255,255)" fill-opacity="1" d=" M6.927999973297119,4 C6.927999973297119,4 20.78499984741211,12 20.78499984741211,12 C20.78499984741211,12 20.78499984741211,28 20.78499984741211,28 C20.78499984741211,28 6.927999973297119,20 6.927999973297119,20 C6.927999973297119,20 6.927999973297119,4 6.927999973297119,4z"></path><path stroke-linecap="round" stroke-linejoin="round" fill-opacity="0" stroke="rgb(0,0,0)" stroke-opacity="1" stroke-width="3" d=" M6.927999973297119,4 C6.927999973297119,4 20.78499984741211,12 20.78499984741211,12 C20.78499984741211,12 20.78499984741211,28 20.78499984741211,28 C20.78499984741211,28 6.927999973297119,20 6.927999973297119,20 C6.927999973297119,20 6.927999973297119,4 6.927999973297119,4z"></path></g><g opacity="1" transform="matrix(1,0,0,1,0,0)"><path fill="rgb(255,255,255)" fill-opacity="1" d=" M34.64099884033203,4 C34.64099884033203,4 20.78499984741211,12 20.78499984741211,12 C20.78499984741211,12 20.78499984741211,28 20.78499984741211,28 C20.78499984741211,28 34.64099884033203,20 34.64099884033203,20 C34.64099884033203,20 34.64099884033203,4 34.64099884033203,4z"></path><path stroke-linecap="round" stroke-linejoin="round" fill-opacity="0" stroke="rgb(0,0,0)" stroke-opacity="1" stroke-width="3" d=" M34.64099884033203,4 C34.64099884033203,4 20.78499984741211,12 20.78499984741211,12 C20.78499984741211,12 20.78499984741211,28 20.78499984741211,28 C20.78499984741211,28 34.64099884033203,20 34.64099884033203,20 C34.64099884033203,20 34.64099884033203,4 34.64099884033203,4z"></path></g><g opacity="1" transform="matrix(1,0,0,1,0,0)"><path fill="rgb(255,255,255)" fill-opacity="1" d=" M20.78499984741211,-4 C20.78499984741211,-4 6.927999973297119,4 6.927999973297119,4 C6.927999973297119,4 20.78499984741211,12 20.78499984741211,12 C20.78499984741211,12 34.64099884033203,4 34.64099884033203,4 C34.64099884033203,4 20.78499984741211,-4 20.78499984741211,-4z"></path><path stroke-linecap="round" stroke-linejoin="round" fill-opacity="0" stroke="rgb(0,0,0)" stroke-opacity="1" stroke-width="3" d=" M20.78499984741211,-4 C20.78499984741211,-4 6.927999973297119,4 6.927999973297119,4 C6.927999973297119,4 20.78499984741211,12 20.78499984741211,12 C20.78499984741211,12 34.64099884033203,4 34.64099884033203,4 C34.64099884033203,4 20.78499984741211,-4 20.78499984741211,-4z"></path></g></g><g transform="matrix(0.999997615814209,0,0,0.999997615814209,128,128.00006103515625)" opacity="1" style="display: block;"><g opacity="1" transform="matrix(1,0,0,1,0,0)"><path fill="rgb(255,255,255)" fill-opacity="1" d=" M-13.855999946594238,16 C-13.855999946594238,16 0,24 0,24 C0,24 0,40 0,40 C0,40 -13.855999946594238,32 -13.855999946594238,32 C-13.855999946594238,32 -13.855999946594238,16 -13.855999946594238,16z"></path><path stroke-linecap="round" stroke-linejoin="round" fill-opacity="0" stroke="rgb(0,0,0)" stroke-opacity="1" stroke-width="3" d=" M-13.855999946594238,16 C-13.855999946594238,16 0,24 0,24 C0,24 0,40 0,40 C0,40 -13.855999946594238,32 -13.855999946594238,32 C-13.855999946594238,32 -13.855999946594238,16 -13.855999946594238,16z"></path></g><g opacity="1" transform="matrix(1,0,0,1,0,0)"><path fill="rgb(255,255,255)" fill-opacity="1" d=" M13.855999946594238,16 C13.855999946594238,16 0,24 0,24 C0,24 0,40 0,40 C0,40 13.855999946594238,32 13.855999946594238,32 C13.855999946594238,32 13.855999946594238,16 13.855999946594238,16z"></path><path stroke-linecap="round" stroke-linejoin="round" fill-opacity="0" stroke="rgb(0,0,0)" stroke-opacity="1" stroke-width="3" d=" M13.855999946594238,16 C13.855999946594238,16 0,24 0,24 C0,24 0,40 0,40 C0,40 13.855999946594238,32 13.855999946594238,32 C13.855999946594238,32 13.855999946594238,16 13.855999946594238,16z"></path></g><g opacity="1" transform="matrix(1,0,0,1,0,0)"><path fill="rgb(255,255,255)" fill-opacity="1" d=" M0,8 C0,8 -13.855999946594238,16 -13.855999946594238,16 C-13.855999946594238,16 0,24 0,24 C0,24 13.855999946594238,16 13.855999946594238,16 C13.855999946594238,16 0,8 0,8z"></path><path stroke-linecap="round" stroke-linejoin="round" fill-opacity="0" stroke="rgb(0,0,0)" stroke-opacity="1" stroke-width="3" d=" M0,8 C0,8 -13.855999946594238,16 -13.855999946594238,16 C-13.855999946594238,16 0,24 0,24 C0,24 13.855999946594238,16 13.855999946594238,16 C13.855999946594238,16 0,8 0,8z"></path></g></g><g transform="matrix(0.9999999403953552,0,0,0.9999999403953552,127.99999237060547,128)" opacity="1" style="display: block;"><g opacity="1" transform="matrix(1,0,0,1,0,0)"><path fill="rgb(255,255,255)" fill-opacity="1" d=" M-34.64099884033203,28 C-34.64099884033203,28 -20.78499984741211,36 -20.78499984741211,36 C-20.78499984741211,36 -20.78499984741211,52 -20.78499984741211,52 C-20.78499984741211,52 -34.64099884033203,44 -34.64099884033203,44 C-34.64099884033203,44 -34.64099884033203,28 -34.64099884033203,28z"></path><path stroke-linecap="round" stroke-linejoin="round" fill-opacity="0" stroke="rgb(0,0,0)" stroke-opacity="1" stroke-width="3" d=" M-34.64099884033203,28 C-34.64099884033203,28 -20.78499984741211,36 -20.78499984741211,36 C-20.78499984741211,36 -20.78499984741211,52 -20.78499984741211,52 C-20.78499984741211,52 -34.64099884033203,44 -34.64099884033203,44 C-34.64099884033203,44 -34.64099884033203,28 -34.64099884033203,28z"></path></g><g opacity="1" transform="matrix(1,0,0,1,0,0)"><path fill="rgb(255,255,255)" fill-opacity="1" d=" M-6.927999973297119,28 C-6.927999973297119,28 -20.78499984741211,36 -20.78499984741211,36 C-20.78499984741211,36 -20.78499984741211,52 -20.78499984741211,52 C-20.78499984741211,52 -6.927999973297119,44 -6.927999973297119,44 C-6.927999973297119,44 -6.927999973297119,28 -6.927999973297119,28z"></path><path stroke-linecap="round" stroke-linejoin="round" fill-opacity="0" stroke="rgb(0,0,0)" stroke-opacity="1" stroke-width="3" d=" M-6.927999973297119,28 C-6.927999973297119,28 -20.78499984741211,36 -20.78499984741211,36 C-20.78499984741211,36 -20.78499984741211,52 -20.78499984741211,52 C-20.78499984741211,52 -6.927999973297119,44 -6.927999973297119,44 C-6.927999973297119,44 -6.927999973297119,28 -6.927999973297119,28z"></path></g><g opacity="1" transform="matrix(1,0,0,1,0,0)"><path fill="rgb(255,255,255)" fill-opacity="1" d=" M-20.78499984741211,20 C-20.78499984741211,20 -34.64099884033203,28 -34.64099884033203,28 C-34.64099884033203,28 -20.78499984741211,36 -20.78499984741211,36 C-20.78499984741211,36 -6.927999973297119,28 -6.927999973297119,28 C-6.927999973297119,28 -20.78499984741211,20 -20.78499984741211,20z"></path><path stroke-linecap="round" stroke-linejoin="round" fill-opacity="0" stroke="rgb(0,0,0)" stroke-opacity="1" stroke-width="3" d=" M-20.78499984741211,20 C-20.78499984741211,20 -34.64099884033203,28 -34.64099884033203,28 C-34.64099884033203,28 -20.78499984741211,36 -20.78499984741211,36 C-20.78499984741211,36 -6.927999973297119,28 -6.927999973297119,28 C-6.927999973297119,28 -20.78499984741211,20 -20.78499984741211,20z"></path></g></g><g transform="matrix(0.9999969601631165,0,0,0.9999969601631165,128.0001220703125,128.0000762939453)" opacity="1" style="display: block;"><g opacity="1" transform="matrix(1,0,0,1,0,0)"><path fill="rgb(255,255,255)" fill-opacity="1" d=" M27.71299934387207,16 C27.71299934387207,16 41.569000244140625,24 41.569000244140625,24 C41.569000244140625,24 41.569000244140625,40 41.569000244140625,40 C41.569000244140625,40 27.71299934387207,32 27.71299934387207,32 C27.71299934387207,32 27.71299934387207,16 27.71299934387207,16z"></path><path stroke-linecap="round" stroke-linejoin="round" fill-opacity="0" stroke="rgb(0,0,0)" stroke-opacity="1" stroke-width="3" d=" M27.71299934387207,16 C27.71299934387207,16 41.569000244140625,24 41.569000244140625,24 C41.569000244140625,24 41.569000244140625,40 41.569000244140625,40 C41.569000244140625,40 27.71299934387207,32 27.71299934387207,32 C27.71299934387207,32 27.71299934387207,16 27.71299934387207,16z"></path></g><g opacity="1" transform="matrix(1,0,0,1,0,0)"><path fill="rgb(255,255,255)" fill-opacity="1" d=" M55.42599868774414,16 C55.42599868774414,16 41.569000244140625,24 41.569000244140625,24 C41.569000244140625,24 41.569000244140625,40 41.569000244140625,40 C41.569000244140625,40 55.42599868774414,32 55.42599868774414,32 C55.42599868774414,32 55.42599868774414,16 55.42599868774414,16z"></path><path stroke-linecap="round" stroke-linejoin="round" fill-opacity="0" stroke="rgb(0,0,0)" stroke-opacity="1" stroke-width="3" d=" M55.42599868774414,16 C55.42599868774414,16 41.569000244140625,24 41.569000244140625,24 C41.569000244140625,24 41.569000244140625,40 41.569000244140625,40 C41.569000244140625,40 55.42599868774414,32 55.42599868774414,32 C55.42599868774414,32 55.42599868774414,16 55.42599868774414,16z"></path></g><g opacity="1" transform="matrix(1,0,0,1,0,0)"><path fill="rgb(255,255,255)" fill-opacity="1" d=" M41.569000244140625,8 C41.569000244140625,8 27.71299934387207,16 27.71299934387207,16 C27.71299934387207,16 41.569000244140625,24 41.569000244140625,24 C41.569000244140625,24 55.42599868774414,16 55.42599868774414,16 C55.42599868774414,16 41.569000244140625,8 41.569000244140625,8z"></path><path stroke-linecap="round" stroke-linejoin="round" fill-opacity="0" stroke="rgb(0,0,0)" stroke-opacity="1" stroke-width="3" d=" M41.569000244140625,8 C41.569000244140625,8 27.71299934387207,16 27.71299934387207,16 C27.71299934387207,16 41.569000244140625,24 41.569000244140625,24 C41.569000244140625,24 55.42599868774414,16 55.42599868774414,16 C55.42599868774414,16 41.569000244140625,8 41.569000244140625,8z"></path></g></g><g transform="matrix(0.9999997615814209,0,0,0.9999997615814209,128.00001525878906,128)" opacity="1" style="display: block;"><g opacity="1" transform="matrix(1,0,0,1,0,0)"><path fill="rgb(255,255,255)" fill-opacity="1" d=" M6.927999973297119,28 C6.927999973297119,28 20.78499984741211,36 20.78499984741211,36 C20.78499984741211,36 20.78499984741211,52 20.78499984741211,52 C20.78499984741211,52 6.927999973297119,44 6.927999973297119,44 C6.927999973297119,44 6.927999973297119,28 6.927999973297119,28z"></path><path stroke-linecap="round" stroke-linejoin="round" fill-opacity="0" stroke="rgb(0,0,0)" stroke-opacity="1" stroke-width="3" d=" M6.927999973297119,28 C6.927999973297119,28 20.78499984741211,36 20.78499984741211,36 C20.78499984741211,36 20.78499984741211,52 20.78499984741211,52 C20.78499984741211,52 6.927999973297119,44 6.927999973297119,44 C6.927999973297119,44 6.927999973297119,28 6.927999973297119,28z"></path></g><g opacity="1" transform="matrix(1,0,0,1,0,0)"><path fill="rgb(255,255,255)" fill-opacity="1" d=" M34.64099884033203,28 C34.64099884033203,28 20.78499984741211,36 20.78499984741211,36 C20.78499984741211,36 20.78499984741211,52 20.78499984741211,52 C20.78499984741211,52 34.64099884033203,44 34.64099884033203,44 C34.64099884033203,44 34.64099884033203,28 34.64099884033203,28z"></path><path stroke-linecap="round" stroke-linejoin="round" fill-opacity="0" stroke="rgb(0,0,0)" stroke-opacity="1" stroke-width="3" d=" M34.64099884033203,28 C34.64099884033203,28 20.78499984741211,36 20.78499984741211,36 C20.78499984741211,36 20.78499984741211,52 20.78499984741211,52 C20.78499984741211,52 34.64099884033203,44 34.64099884033203,44 C34.64099884033203,44 34.64099884033203,28 34.64099884033203,28z"></path></g><g opacity="1" transform="matrix(1,0,0,1,0,0)"><path fill="rgb(255,255,255)" fill-opacity="1" d=" M20.78499984741211,20 C20.78499984741211,20 6.927999973297119,28 6.927999973297119,28 C6.927999973297119,28 20.78499984741211,36 20.78499984741211,36 C20.78499984741211,36 34.64099884033203,28 34.64099884033203,28 C34.64099884033203,28 20.78499984741211,20 20.78499984741211,20z"></path><path stroke-linecap="round" stroke-linejoin="round" fill-opacity="0" stroke="rgb(0,0,0)" stroke-opacity="1" stroke-width="3" d=" M20.78499984741211,20 C20.78499984741211,20 6.927999973297119,28 6.927999973297119,28 C6.927999973297119,28 20.78499984741211,36 20.78499984741211,36 C20.78499984741211,36 34.64099884033203,28 34.64099884033203,28 C34.64099884033203,28 20.78499984741211,20 20.78499984741211,20z"></path></g></g><g transform="matrix(0.9999999403953552,0,0,0.9999999403953552,128,128)" opacity="1" style="display: block;"><g opacity="1" transform="matrix(1,0,0,1,0,0)"><path fill="rgb(255,255,255)" fill-opacity="1" d=" M-13.855999946594238,40 C-13.855999946594238,40 0,48 0,48 C0,48 0,64 0,64 C0,64 -13.855999946594238,56 -13.855999946594238,56 C-13.855999946594238,56 -13.855999946594238,40 -13.855999946594238,40z"></path><path stroke-linecap="round" stroke-linejoin="round" fill-opacity="0" stroke="rgb(0,0,0)" stroke-opacity="1" stroke-width="3" d=" M-13.855999946594238,40 C-13.855999946594238,40 0,48 0,48 C0,48 0,64 0,64 C0,64 -13.855999946594238,56 -13.855999946594238,56 C-13.855999946594238,56 -13.855999946594238,40 -13.855999946594238,40z"></path></g><g opacity="1" transform="matrix(1,0,0,1,0,0)"><path fill="rgb(255,255,255)" fill-opacity="1" d=" M13.855999946594238,40 C13.855999946594238,40 0,48 0,48 C0,48 0,64 0,64 C0,64 13.855999946594238,56 13.855999946594238,56 C13.855999946594238,56 13.855999946594238,40 13.855999946594238,40z"></path><path stroke-linecap="round" stroke-linejoin="round" fill-opacity="0" stroke="rgb(0,0,0)" stroke-opacity="1" stroke-width="3" d=" M13.855999946594238,40 C13.855999946594238,40 0,48 0,48 C0,48 0,64 0,64 C0,64 13.855999946594238,56 13.855999946594238,56 C13.855999946594238,56 13.855999946594238,40 13.855999946594238,40z"></path></g><g opacity="1" transform="matrix(1,0,0,1,0,0)"><path fill="rgb(255,255,255)" fill-opacity="1" d=" M0,32 C0,32 -13.855999946594238,40 -13.855999946594238,40 C-13.855999946594238,40 0,48 0,48 C0,48 13.855999946594238,40 13.855999946594238,40 C13.855999946594238,40 0,32 0,32z"></path><path stroke-linecap="round" stroke-linejoin="round" fill-opacity="0" stroke="rgb(0,0,0)" stroke-opacity="1" stroke-width="3" d=" M0,32 C0,32 -13.855999946594238,40 -13.855999946594238,40 C-13.855999946594238,40 0,48 0,48 C0,48 13.855999946594238,40 13.855999946594238,40 C13.855999946594238,40 0,32 0,32z"></path></g></g><g transform="matrix(0.8972638845443726,0,0,0.8972638845443726,128,125.53433227539062)" opacity="1" style="display: block;"><g opacity="1" transform="matrix(1,0,0,1,0,0)"><path fill="rgb(255,255,255)" fill-opacity="1" d=" M-13.855999946594238,-32 C-13.855999946594238,-32 0,-24 0,-24 C0,-24 0,-8 0,-8 C0,-8 -13.855999946594238,-16 -13.855999946594238,-16 C-13.855999946594238,-16 -13.855999946594238,-32 -13.855999946594238,-32z"></path><path stroke-linecap="round" stroke-linejoin="round" fill-opacity="0" stroke="rgb(0,0,0)" stroke-opacity="1" stroke-width="3" d=" M-13.855999946594238,-32 C-13.855999946594238,-32 0,-24 0,-24 C0,-24 0,-8 0,-8 C0,-8 -13.855999946594238,-16 -13.855999946594238,-16 C-13.855999946594238,-16 -13.855999946594238,-32 -13.855999946594238,-32z"></path></g><g opacity="1" transform="matrix(1,0,0,1,0,0)"><path fill="rgb(255,255,255)" fill-opacity="1" d=" M13.855999946594238,-32 C13.855999946594238,-32 0,-24 0,-24 C0,-24 0,-8 0,-8 C0,-8 13.855999946594238,-16 13.855999946594238,-16 C13.855999946594238,-16 13.855999946594238,-32 13.855999946594238,-32z"></path><path stroke-linecap="round" stroke-linejoin="round" fill-opacity="0" stroke="rgb(0,0,0)" stroke-opacity="1" stroke-width="3" d=" M13.855999946594238,-32 C13.855999946594238,-32 0,-24 0,-24 C0,-24 0,-8 0,-8 C0,-8 13.855999946594238,-16 13.855999946594238,-16 C13.855999946594238,-16 13.855999946594238,-32 13.855999946594238,-32z"></path></g><g opacity="1" transform="matrix(1,0,0,1,0,0)"><path fill="rgb(255,255,255)" fill-opacity="1" d=" M0,-40 C0,-40 -13.855999946594238,-32 -13.855999946594238,-32 C-13.855999946594238,-32 0,-24 0,-24 C0,-24 13.855999946594238,-32 13.855999946594238,-32 C13.855999946594238,-32 0,-40 0,-40z"></path><path stroke-linecap="round" stroke-linejoin="round" fill-opacity="0" stroke="rgb(0,0,0)" stroke-opacity="1" stroke-width="3" d=" M0,-40 C0,-40 -13.855999946594238,-32 -13.855999946594238,-32 C-13.855999946594238,-32 0,-24 0,-24 C0,-24 13.855999946594238,-32 13.855999946594238,-32 C13.855999946594238,-32 0,-40 0,-40z"></path></g></g><g transform="matrix(0.6135919094085693,0,0,0.6135919094085693,119.968505859375,123.36310577392578)" opacity="1" style="display: block;"><g opacity="1" transform="matrix(1,0,0,1,0,0)"><path fill="rgb(255,255,255)" fill-opacity="1" d=" M-34.64099884033203,-20 C-34.64099884033203,-20 -20.78499984741211,-12 -20.78499984741211,-12 C-20.78499984741211,-12 -20.78499984741211,4 -20.78499984741211,4 C-20.78499984741211,4 -34.64099884033203,-4 -34.64099884033203,-4 C-34.64099884033203,-4 -34.64099884033203,-20 -34.64099884033203,-20z"></path><path stroke-linecap="round" stroke-linejoin="round" fill-opacity="0" stroke="rgb(0,0,0)" stroke-opacity="1" stroke-width="3" d=" M-34.64099884033203,-20 C-34.64099884033203,-20 -20.78499984741211,-12 -20.78499984741211,-12 C-20.78499984741211,-12 -20.78499984741211,4 -20.78499984741211,4 C-20.78499984741211,4 -34.64099884033203,-4 -34.64099884033203,-4 C-34.64099884033203,-4 -34.64099884033203,-20 -34.64099884033203,-20z"></path></g><g opacity="1" transform="matrix(1,0,0,1,0,0)"><path fill="rgb(255,255,255)" fill-opacity="1" d=" M-6.927999973297119,-20 C-6.927999973297119,-20 -20.78499984741211,-12 -20.78499984741211,-12 C-20.78499984741211,-12 -20.78499984741211,4 -20.78499984741211,4 C-20.78499984741211,4 -6.927999973297119,-4 -6.927999973297119,-4 C-6.927999973297119,-4 -6.927999973297119,-20 -6.927999973297119,-20z"></path><path stroke-linecap="round" stroke-linejoin="round" fill-opacity="0" stroke="rgb(0,0,0)" stroke-opacity="1" stroke-width="3" d=" M-6.927999973297119,-20 C-6.927999973297119,-20 -20.78499984741211,-12 -20.78499984741211,-12 C-20.78499984741211,-12 -20.78499984741211,4 -20.78499984741211,4 C-20.78499984741211,4 -6.927999973297119,-4 -6.927999973297119,-4 C-6.927999973297119,-4 -6.927999973297119,-20 -6.927999973297119,-20z"></path></g><g opacity="1" transform="matrix(1,0,0,1,0,0)"><path fill="rgb(255,255,255)" fill-opacity="1" d=" M-20.78499984741211,-28 C-20.78499984741211,-28 -34.64099884033203,-20 -34.64099884033203,-20 C-34.64099884033203,-20 -20.78499984741211,-12 -20.78499984741211,-12 C-20.78499984741211,-12 -6.927999973297119,-20 -6.927999973297119,-20 C-6.927999973297119,-20 -20.78499984741211,-28 -20.78499984741211,-28z"></path><path stroke-linecap="round" stroke-linejoin="round" fill-opacity="0" stroke="rgb(0,0,0)" stroke-opacity="1" stroke-width="3" d=" M-20.78499984741211,-28 C-20.78499984741211,-28 -34.64099884033203,-20 -34.64099884033203,-20 C-34.64099884033203,-20 -20.78499984741211,-12 -20.78499984741211,-12 C-20.78499984741211,-12 -6.927999973297119,-20 -6.927999973297119,-20 C-6.927999973297119,-20 -20.78499984741211,-28 -20.78499984741211,-28z"></path></g></g><g transform="matrix(0.15629610419273376,0,0,0.15629610419273376,92.92807006835938,128)" opacity="1" style="display: block;"><g opacity="1" transform="matrix(1,0,0,1,0,0)"><path fill="rgb(255,255,255)" fill-opacity="1" d=" M-55.42599868774414,-8 C-55.42599868774414,-8 -41.569000244140625,0 -41.569000244140625,0 C-41.569000244140625,0 -41.569000244140625,16 -41.569000244140625,16 C-41.569000244140625,16 -55.42599868774414,8 -55.42599868774414,8 C-55.42599868774414,8 -55.42599868774414,-8 -55.42599868774414,-8z"></path><path stroke-linecap="round" stroke-linejoin="round" fill-opacity="0" stroke="rgb(0,0,0)" stroke-opacity="1" stroke-width="3" d=" M-55.42599868774414,-8 C-55.42599868774414,-8 -41.569000244140625,0 -41.569000244140625,0 C-41.569000244140625,0 -41.569000244140625,16 -41.569000244140625,16 C-41.569000244140625,16 -55.42599868774414,8 -55.42599868774414,8 C-55.42599868774414,8 -55.42599868774414,-8 -55.42599868774414,-8z"></path></g><g opacity="1" transform="matrix(1,0,0,1,0,0)"><path fill="rgb(255,255,255)" fill-opacity="1" d=" M-27.71299934387207,-8 C-27.71299934387207,-8 -41.569000244140625,0 -41.569000244140625,0 C-41.569000244140625,0 -41.569000244140625,16 -41.569000244140625,16 C-41.569000244140625,16 -27.71299934387207,8 -27.71299934387207,8 C-27.71299934387207,8 -27.71299934387207,-8 -27.71299934387207,-8z"></path><path stroke-linecap="round" stroke-linejoin="round" fill-opacity="0" stroke="rgb(0,0,0)" stroke-opacity="1" stroke-width="3" d=" M-27.71299934387207,-8 C-27.71299934387207,-8 -41.569000244140625,0 -41.569000244140625,0 C-41.569000244140625,0 -41.569000244140625,16 -41.569000244140625,16 C-41.569000244140625,16 -27.71299934387207,8 -27.71299934387207,8 C-27.71299934387207,8 -27.71299934387207,-8 -27.71299934387207,-8z"></path></g><g opacity="1" transform="matrix(1,0,0,1,0,0)"><path fill="rgb(255,255,255)" fill-opacity="1" d=" M-41.569000244140625,-16 C-41.569000244140625,-16 -55.42599868774414,-8 -55.42599868774414,-8 C-55.42599868774414,-8 -41.569000244140625,0 -41.569000244140625,0 C-41.569000244140625,0 -27.71299934387207,-8 -27.71299934387207,-8 C-27.71299934387207,-8 -41.569000244140625,-16 -41.569000244140625,-16z"></path><path stroke-linecap="round" stroke-linejoin="round" fill-opacity="0" stroke="rgb(0,0,0)" stroke-opacity="1" stroke-width="3" d=" M-41.569000244140625,-16 C-41.569000244140625,-16 -55.42599868774414,-8 -55.42599868774414,-8 C-55.42599868774414,-8 -41.569000244140625,0 -41.569000244140625,0 C-41.569000244140625,0 -27.71299934387207,-8 -27.71299934387207,-8 C-27.71299934387207,-8 -41.569000244140625,-16 -41.569000244140625,-16z"></path></g></g><g transform="matrix(0,0,0,0,148.78500366210938,116)" opacity="1" style="display: block;"><g opacity="1" transform="matrix(1,0,0,1,0,0)"><path fill="rgb(255,255,255)" fill-opacity="1" d=" M6.927999973297119,-20 C6.927999973297119,-20 20.78499984741211,-12 20.78499984741211,-12 C20.78499984741211,-12 20.78499984741211,4 20.78499984741211,4 C20.78499984741211,4 6.927999973297119,-4 6.927999973297119,-4 C6.927999973297119,-4 6.927999973297119,-20 6.927999973297119,-20z"></path><path stroke-linecap="round" stroke-linejoin="round" fill-opacity="0" stroke="rgb(0,0,0)" stroke-opacity="1" stroke-width="3" d=" M6.927999973297119,-20 C6.927999973297119,-20 20.78499984741211,-12 20.78499984741211,-12 C20.78499984741211,-12 20.78499984741211,4 20.78499984741211,4 C20.78499984741211,4 6.927999973297119,-4 6.927999973297119,-4 C6.927999973297119,-4 6.927999973297119,-20 6.927999973297119,-20z"></path></g><g opacity="1" transform="matrix(1,0,0,1,0,0)"><path fill="rgb(255,255,255)" fill-opacity="1" d=" M34.64099884033203,-20 C34.64099884033203,-20 20.78499984741211,-12 20.78499984741211,-12 C20.78499984741211,-12 20.78499984741211,4 20.78499984741211,4 C20.78499984741211,4 34.64099884033203,-4 34.64099884033203,-4 C34.64099884033203,-4 34.64099884033203,-20 34.64099884033203,-20z"></path><path stroke-linecap="round" stroke-linejoin="round" fill-opacity="0" stroke="rgb(0,0,0)" stroke-opacity="1" stroke-width="3" d=" M34.64099884033203,-20 C34.64099884033203,-20 20.78499984741211,-12 20.78499984741211,-12 C20.78499984741211,-12 20.78499984741211,4 20.78499984741211,4 C20.78499984741211,4 34.64099884033203,-4 34.64099884033203,-4 C34.64099884033203,-4 34.64099884033203,-20 34.64099884033203,-20z"></path></g><g opacity="1" transform="matrix(1,0,0,1,0,0)"><path fill="rgb(255,255,255)" fill-opacity="1" d=" M20.78499984741211,-28 C20.78499984741211,-28 6.927999973297119,-20 6.927999973297119,-20 C6.927999973297119,-20 20.78499984741211,-12 20.78499984741211,-12 C20.78499984741211,-12 34.64099884033203,-20 34.64099884033203,-20 C34.64099884033203,-20 20.78499984741211,-28 20.78499984741211,-28z"></path><path stroke-linecap="round" stroke-linejoin="round" fill-opacity="0" stroke="rgb(0,0,0)" stroke-opacity="1" stroke-width="3" d=" M20.78499984741211,-28 C20.78499984741211,-28 6.927999973297119,-20 6.927999973297119,-20 C6.927999973297119,-20 20.78499984741211,-12 20.78499984741211,-12 C20.78499984741211,-12 34.64099884033203,-20 34.64099884033203,-20 C34.64099884033203,-20 20.78499984741211,-28 20.78499984741211,-28z"></path></g></g><g transform="matrix(0.005377499852329493,0,0,0.005377499852329493,128,128)" opacity="1" style="display: block;"><g opacity="1" transform="matrix(1,0,0,1,0,0)"><path fill="rgb(255,255,255)" fill-opacity="1" d=" M-13.855999946594238,-8 C-13.855999946594238,-8 0,0 0,0 C0,0 0,16 0,16 C0,16 -13.855999946594238,8 -13.855999946594238,8 C-13.855999946594238,8 -13.855999946594238,-8 -13.855999946594238,-8z"></path><path stroke-linecap="round" stroke-linejoin="round" fill-opacity="0" stroke="rgb(0,0,0)" stroke-opacity="1" stroke-width="3" d=" M-13.855999946594238,-8 C-13.855999946594238,-8 0,0 0,0 C0,0 0,16 0,16 C0,16 -13.855999946594238,8 -13.855999946594238,8 C-13.855999946594238,8 -13.855999946594238,-8 -13.855999946594238,-8z"></path></g><g opacity="1" transform="matrix(1,0,0,1,0,0)"><path fill="rgb(255,255,255)" fill-opacity="1" d=" M13.855999946594238,-8 C13.855999946594238,-8 0,0 0,0 C0,0 0,16 0,16 C0,16 13.855999946594238,8 13.855999946594238,8 C13.855999946594238,8 13.855999946594238,-8 13.855999946594238,-8z"></path><path stroke-linecap="round" stroke-linejoin="round" fill-opacity="0" stroke="rgb(0,0,0)" stroke-opacity="1" stroke-width="3" d=" M13.855999946594238,-8 C13.855999946594238,-8 0,0 0,0 C0,0 0,16 0,16 C0,16 13.855999946594238,8 13.855999946594238,8 C13.855999946594238,8 13.855999946594238,-8 13.855999946594238,-8z"></path></g><g opacity="1" transform="matrix(1,0,0,1,0,0)"><path fill="rgb(255,255,255)" fill-opacity="1" d=" M0,-16 C0,-16 -13.855999946594238,-8 -13.855999946594238,-8 C-13.855999946594238,-8 0,0 0,0 C0,0 13.855999946594238,-8 13.855999946594238,-8 C13.855999946594238,-8 0,-16 0,-16z"></path><path stroke-linecap="round" stroke-linejoin="round" fill-opacity="0" stroke="rgb(0,0,0)" stroke-opacity="1" stroke-width="3" d=" M0,-16 C0,-16 -13.855999946594238,-8 -13.855999946594238,-8 C-13.855999946594238,-8 0,0 0,0 C0,0 13.855999946594238,-8 13.855999946594238,-8 C13.855999946594238,-8 0,-16 0,-16z"></path></g></g><g transform="matrix(0.04234425723552704,0,0,0.04234425723552704,108.09512329101562,139.4918670654297)" opacity="1" style="display: block;"><g opacity="1" transform="matrix(1,0,0,1,0,0)"><path fill="rgb(255,255,255)" fill-opacity="1" d=" M-34.64099884033203,4 C-34.64099884033203,4 -20.78499984741211,12 -20.78499984741211,12 C-20.78499984741211,12 -20.78499984741211,28 -20.78499984741211,28 C-20.78499984741211,28 -34.64099884033203,20 -34.64099884033203,20 C-34.64099884033203,20 -34.64099884033203,4 -34.64099884033203,4z"></path><path stroke-linecap="round" stroke-linejoin="round" fill-opacity="0" stroke="rgb(0,0,0)" stroke-opacity="1" stroke-width="3" d=" M-34.64099884033203,4 C-34.64099884033203,4 -20.78499984741211,12 -20.78499984741211,12 C-20.78499984741211,12 -20.78499984741211,28 -20.78499984741211,28 C-20.78499984741211,28 -34.64099884033203,20 -34.64099884033203,20 C-34.64099884033203,20 -34.64099884033203,4 -34.64099884033203,4z"></path></g><g opacity="1" transform="matrix(1,0,0,1,0,0)"><path fill="rgb(255,255,255)" fill-opacity="1" d=" M-6.927999973297119,4 C-6.927999973297119,4 -20.78499984741211,12 -20.78499984741211,12 C-20.78499984741211,12 -20.78499984741211,28 -20.78499984741211,28 C-20.78499984741211,28 -6.927999973297119,20 -6.927999973297119,20 C-6.927999973297119,20 -6.927999973297119,4 -6.927999973297119,4z"></path><path stroke-linecap="round" stroke-linejoin="round" fill-opacity="0" stroke="rgb(0,0,0)" stroke-opacity="1" stroke-width="3" d=" M-6.927999973297119,4 C-6.927999973297119,4 -20.78499984741211,12 -20.78499984741211,12 C-20.78499984741211,12 -20.78499984741211,28 -20.78499984741211,28 C-20.78499984741211,28 -6.927999973297119,20 -6.927999973297119,20 C-6.927999973297119,20 -6.927999973297119,4 -6.927999973297119,4z"></path></g><g opacity="1" transform="matrix(1,0,0,1,0,0)"><path fill="rgb(255,255,255)" fill-opacity="1" d=" M-20.78499984741211,-4 C-20.78499984741211,-4 -34.64099884033203,4 -34.64099884033203,4 C-34.64099884033203,4 -20.78499984741211,12 -20.78499984741211,12 C-20.78499984741211,12 -6.927999973297119,4 -6.927999973297119,4 C-6.927999973297119,4 -20.78499984741211,-4 -20.78499984741211,-4z"></path><path stroke-linecap="round" stroke-linejoin="round" fill-opacity="0" stroke="rgb(0,0,0)" stroke-opacity="1" stroke-width="3" d=" M-20.78499984741211,-4 C-20.78499984741211,-4 -34.64099884033203,4 -34.64099884033203,4 C-34.64099884033203,4 -20.78499984741211,12 -20.78499984741211,12 C-20.78499984741211,12 -6.927999973297119,4 -6.927999973297119,4 C-6.927999973297119,4 -20.78499984741211,-4 -20.78499984741211,-4z"></path></g></g><g transform="matrix(0,0,0,0,169.56900024414062,128)" opacity="1" style="display: block;"><g opacity="1" transform="matrix(1,0,0,1,0,0)"><path fill="rgb(255,255,255)" fill-opacity="1" d=" M27.71299934387207,-8 C27.71299934387207,-8 41.569000244140625,0 41.569000244140625,0 C41.569000244140625,0 41.569000244140625,16 41.569000244140625,16 C41.569000244140625,16 27.71299934387207,8 27.71299934387207,8 C27.71299934387207,8 27.71299934387207,-8 27.71299934387207,-8z"></path><path stroke-linecap="round" stroke-linejoin="round" fill-opacity="0" stroke="rgb(0,0,0)" stroke-opacity="1" stroke-width="3" d=" M27.71299934387207,-8 C27.71299934387207,-8 41.569000244140625,0 41.569000244140625,0 C41.569000244140625,0 41.569000244140625,16 41.569000244140625,16 C41.569000244140625,16 27.71299934387207,8 27.71299934387207,8 C27.71299934387207,8 27.71299934387207,-8 27.71299934387207,-8z"></path></g><g opacity="1" transform="matrix(1,0,0,1,0,0)"><path fill="rgb(255,255,255)" fill-opacity="1" d=" M55.42599868774414,-8 C55.42599868774414,-8 41.569000244140625,0 41.569000244140625,0 C41.569000244140625,0 41.569000244140625,16 41.569000244140625,16 C41.569000244140625,16 55.42599868774414,8 55.42599868774414,8 C55.42599868774414,8 55.42599868774414,-8 55.42599868774414,-8z"></path><path stroke-linecap="round" stroke-linejoin="round" fill-opacity="0" stroke="rgb(0,0,0)" stroke-opacity="1" stroke-width="3" d=" M55.42599868774414,-8 C55.42599868774414,-8 41.569000244140625,0 41.569000244140625,0 C41.569000244140625,0 41.569000244140625,16 41.569000244140625,16 C41.569000244140625,16 55.42599868774414,8 55.42599868774414,8 C55.42599868774414,8 55.42599868774414,-8 55.42599868774414,-8z"></path></g><g opacity="1" transform="matrix(1,0,0,1,0,0)"><path fill="rgb(255,255,255)" fill-opacity="1" d=" M41.569000244140625,-16 C41.569000244140625,-16 27.71299934387207,-8 27.71299934387207,-8 C27.71299934387207,-8 41.569000244140625,0 41.569000244140625,0 C41.569000244140625,0 55.42599868774414,-8 55.42599868774414,-8 C55.42599868774414,-8 41.569000244140625,-16 41.569000244140625,-16z"></path><path stroke-linecap="round" stroke-linejoin="round" fill-opacity="0" stroke="rgb(0,0,0)" stroke-opacity="1" stroke-width="3" d=" M41.569000244140625,-16 C41.569000244140625,-16 27.71299934387207,-8 27.71299934387207,-8 C27.71299934387207,-8 41.569000244140625,0 41.569000244140625,0 C41.569000244140625,0 55.42599868774414,-8 55.42599868774414,-8 C55.42599868774414,-8 41.569000244140625,-16 41.569000244140625,-16z"></path></g></g><g transform="matrix(0,0,0,0,148.78500366210938,140)" opacity="1" style="display: block;"><g opacity="1" transform="matrix(1,0,0,1,0,0)"><path fill="rgb(255,255,255)" fill-opacity="1" d=" M6.927999973297119,4 C6.927999973297119,4 20.78499984741211,12 20.78499984741211,12 C20.78499984741211,12 20.78499984741211,28 20.78499984741211,28 C20.78499984741211,28 6.927999973297119,20 6.927999973297119,20 C6.927999973297119,20 6.927999973297119,4 6.927999973297119,4z"></path><path stroke-linecap="round" stroke-linejoin="round" fill-opacity="0" stroke="rgb(0,0,0)" stroke-opacity="1" stroke-width="3" d=" M6.927999973297119,4 C6.927999973297119,4 20.78499984741211,12 20.78499984741211,12 C20.78499984741211,12 20.78499984741211,28 20.78499984741211,28 C20.78499984741211,28 6.927999973297119,20 6.927999973297119,20 C6.927999973297119,20 6.927999973297119,4 6.927999973297119,4z"></path></g><g opacity="1" transform="matrix(1,0,0,1,0,0)"><path fill="rgb(255,255,255)" fill-opacity="1" d=" M34.64099884033203,4 C34.64099884033203,4 20.78499984741211,12 20.78499984741211,12 C20.78499984741211,12 20.78499984741211,28 20.78499984741211,28 C20.78499984741211,28 34.64099884033203,20 34.64099884033203,20 C34.64099884033203,20 34.64099884033203,4 34.64099884033203,4z"></path><path stroke-linecap="round" stroke-linejoin="round" fill-opacity="0" stroke="rgb(0,0,0)" stroke-opacity="1" stroke-width="3" d=" M34.64099884033203,4 C34.64099884033203,4 20.78499984741211,12 20.78499984741211,12 C20.78499984741211,12 20.78499984741211,28 20.78499984741211,28 C20.78499984741211,28 34.64099884033203,20 34.64099884033203,20 C34.64099884033203,20 34.64099884033203,4 34.64099884033203,4z"></path></g><g opacity="1" transform="matrix(1,0,0,1,0,0)"><path fill="rgb(255,255,255)" fill-opacity="1" d=" M20.78499984741211,-4 C20.78499984741211,-4 6.927999973297119,4 6.927999973297119,4 C6.927999973297119,4 20.78499984741211,12 20.78499984741211,12 C20.78499984741211,12 34.64099884033203,4 34.64099884033203,4 C34.64099884033203,4 20.78499984741211,-4 20.78499984741211,-4z"></path><path stroke-linecap="round" stroke-linejoin="round" fill-opacity="0" stroke="rgb(0,0,0)" stroke-opacity="1" stroke-width="3" d=" M20.78499984741211,-4 C20.78499984741211,-4 6.927999973297119,4 6.927999973297119,4 C6.927999973297119,4 20.78499984741211,12 20.78499984741211,12 C20.78499984741211,12 34.64099884033203,4 34.64099884033203,4 C34.64099884033203,4 20.78499984741211,-4 20.78499984741211,-4z"></path></g></g><g transform="matrix(0,0,0,0,128,152)" opacity="1" style="display: block;"><g opacity="1" transform="matrix(1,0,0,1,0,0)"><path fill="rgb(255,255,255)" fill-opacity="1" d=" M-13.855999946594238,16 C-13.855999946594238,16 0,24 0,24 C0,24 0,40 0,40 C0,40 -13.855999946594238,32 -13.855999946594238,32 C-13.855999946594238,32 -13.855999946594238,16 -13.855999946594238,16z"></path><path stroke-linecap="round" stroke-linejoin="round" fill-opacity="0" stroke="rgb(0,0,0)" stroke-opacity="1" stroke-width="3" d=" M-13.855999946594238,16 C-13.855999946594238,16 0,24 0,24 C0,24 0,40 0,40 C0,40 -13.855999946594238,32 -13.855999946594238,32 C-13.855999946594238,32 -13.855999946594238,16 -13.855999946594238,16z"></path></g><g opacity="1" transform="matrix(1,0,0,1,0,0)"><path fill="rgb(255,255,255)" fill-opacity="1" d=" M13.855999946594238,16 C13.855999946594238,16 0,24 0,24 C0,24 0,40 0,40 C0,40 13.855999946594238,32 13.855999946594238,32 C13.855999946594238,32 13.855999946594238,16 13.855999946594238,16z"></path><path stroke-linecap="round" stroke-linejoin="round" fill-opacity="0" stroke="rgb(0,0,0)" stroke-opacity="1" stroke-width="3" d=" M13.855999946594238,16 C13.855999946594238,16 0,24 0,24 C0,24 0,40 0,40 C0,40 13.855999946594238,32 13.855999946594238,32 C13.855999946594238,32 13.855999946594238,16 13.855999946594238,16z"></path></g><g opacity="1" transform="matrix(1,0,0,1,0,0)"><path fill="rgb(255,255,255)" fill-opacity="1" d=" M0,8 C0,8 -13.855999946594238,16 -13.855999946594238,16 C-13.855999946594238,16 0,24 0,24 C0,24 13.855999946594238,16 13.855999946594238,16 C13.855999946594238,16 0,8 0,8z"></path><path stroke-linecap="round" stroke-linejoin="round" fill-opacity="0" stroke="rgb(0,0,0)" stroke-opacity="1" stroke-width="3" d=" M0,8 C0,8 -13.855999946594238,16 -13.855999946594238,16 C-13.855999946594238,16 0,24 0,24 C0,24 13.855999946594238,16 13.855999946594238,16 C13.855999946594238,16 0,8 0,8z"></path></g></g><g transform="matrix(0,0,0,0,128,80.00000762939453)" opacity="1" style="display: block;"><g opacity="1" transform="matrix(1,0,0,1,0,0)"><path fill="rgb(255,255,255)" fill-opacity="1" d=" M-13.855999946594238,-56 C-13.855999946594238,-56 0,-48 0,-48 C0,-48 0,-32 0,-32 C0,-32 -13.855999946594238,-40 -13.855999946594238,-40 C-13.855999946594238,-40 -13.855999946594238,-56 -13.855999946594238,-56z"></path><path stroke-linecap="round" stroke-linejoin="round" fill-opacity="0" stroke="rgb(0,0,0)" stroke-opacity="1" stroke-width="3" d=" M-13.855999946594238,-56 C-13.855999946594238,-56 0,-48 0,-48 C0,-48 0,-32 0,-32 C0,-32 -13.855999946594238,-40 -13.855999946594238,-40 C-13.855999946594238,-40 -13.855999946594238,-56 -13.855999946594238,-56z"></path></g><g opacity="1" transform="matrix(1,0,0,1,0,0)"><path fill="rgb(255,255,255)" fill-opacity="1" d=" M13.855999946594238,-56 C13.855999946594238,-56 0,-48 0,-48 C0,-48 0,-32 0,-32 C0,-32 13.855999946594238,-40 13.855999946594238,-40 C13.855999946594238,-40 13.855999946594238,-56 13.855999946594238,-56z"></path><path stroke-linecap="round" stroke-linejoin="round" fill-opacity="0" stroke="rgb(0,0,0)" stroke-opacity="1" stroke-width="3" d=" M13.855999946594238,-56 C13.855999946594238,-56 0,-48 0,-48 C0,-48 0,-32 0,-32 C0,-32 13.855999946594238,-40 13.855999946594238,-40 C13.855999946594238,-40 13.855999946594238,-56 13.855999946594238,-56z"></path></g><g opacity="1" transform="matrix(1,0,0,1,0,0)"><path fill="rgb(255,255,255)" fill-opacity="1" d=" M0,-64 C0,-64 -13.855999946594238,-56 -13.855999946594238,-56 C-13.855999946594238,-56 0,-48 0,-48 C0,-48 13.855999946594238,-56 13.855999946594238,-56 C13.855999946594238,-56 0,-64 0,-64z"></path><path stroke-linecap="round" stroke-linejoin="round" fill-opacity="0" stroke="rgb(0,0,0)" stroke-opacity="1" stroke-width="3" d=" M0,-64 C0,-64 -13.855999946594238,-56 -13.855999946594238,-56 C-13.855999946594238,-56 0,-48 0,-48 C0,-48 13.855999946594238,-56 13.855999946594238,-56 C13.855999946594238,-56 0,-64 0,-64z"></path></g></g><g transform="matrix(0.000003844092589133652,0,0,0.000003844092589133652,107.21507263183594,92.00013732910156)" opacity="1" style="display: block;"><g opacity="1" transform="matrix(1,0,0,1,0,0)"><path fill="rgb(255,255,255)" fill-opacity="1" d=" M-34.64099884033203,-44 C-34.64099884033203,-44 -20.78499984741211,-36 -20.78499984741211,-36 C-20.78499984741211,-36 -20.78499984741211,-20 -20.78499984741211,-20 C-20.78499984741211,-20 -34.64099884033203,-28 -34.64099884033203,-28 C-34.64099884033203,-28 -34.64099884033203,-44 -34.64099884033203,-44z"></path><path stroke-linecap="round" stroke-linejoin="round" fill-opacity="0" stroke="rgb(0,0,0)" stroke-opacity="1" stroke-width="3" d=" M-34.64099884033203,-44 C-34.64099884033203,-44 -20.78499984741211,-36 -20.78499984741211,-36 C-20.78499984741211,-36 -20.78499984741211,-20 -20.78499984741211,-20 C-20.78499984741211,-20 -34.64099884033203,-28 -34.64099884033203,-28 C-34.64099884033203,-28 -34.64099884033203,-44 -34.64099884033203,-44z"></path></g><g opacity="1" transform="matrix(1,0,0,1,0,0)"><path fill="rgb(255,255,255)" fill-opacity="1" d=" M-6.927999973297119,-44 C-6.927999973297119,-44 -20.78499984741211,-36 -20.78499984741211,-36 C-20.78499984741211,-36 -20.78499984741211,-20 -20.78499984741211,-20 C-20.78499984741211,-20 -6.927999973297119,-28 -6.927999973297119,-28 C-6.927999973297119,-28 -6.927999973297119,-44 -6.927999973297119,-44z"></path><path stroke-linecap="round" stroke-linejoin="round" fill-opacity="0" stroke="rgb(0,0,0)" stroke-opacity="1" stroke-width="3" d=" M-6.927999973297119,-44 C-6.927999973297119,-44 -20.78499984741211,-36 -20.78499984741211,-36 C-20.78499984741211,-36 -20.78499984741211,-20 -20.78499984741211,-20 C-20.78499984741211,-20 -6.927999973297119,-28 -6.927999973297119,-28 C-6.927999973297119,-28 -6.927999973297119,-44 -6.927999973297119,-44z"></path></g><g opacity="1" transform="matrix(1,0,0,1,0,0)"><path fill="rgb(255,255,255)" fill-opacity="1" d=" M-20.78499984741211,-52 C-20.78499984741211,-52 -34.64099884033203,-44 -34.64099884033203,-44 C-34.64099884033203,-44 -20.78499984741211,-36 -20.78499984741211,-36 C-20.78499984741211,-36 -6.927999973297119,-44 -6.927999973297119,-44 C-6.927999973297119,-44 -20.78499984741211,-52 -20.78499984741211,-52z"></path><path stroke-linecap="round" stroke-linejoin="round" fill-opacity="0" stroke="rgb(0,0,0)" stroke-opacity="1" stroke-width="3" d=" M-20.78499984741211,-52 C-20.78499984741211,-52 -34.64099884033203,-44 -34.64099884033203,-44 C-34.64099884033203,-44 -20.78499984741211,-36 -20.78499984741211,-36 C-20.78499984741211,-36 -6.927999973297119,-44 -6.927999973297119,-44 C-6.927999973297119,-44 -20.78499984741211,-52 -20.78499984741211,-52z"></path></g></g><g transform="matrix(0.000004698189059126889,0,0,0.000004698189059126889,86.43119812011719,104.00011444091797)" opacity="1" style="display: block;"><g opacity="1" transform="matrix(1,0,0,1,0,0)"><path fill="rgb(255,255,255)" fill-opacity="1" d=" M-55.42599868774414,-32 C-55.42599868774414,-32 -41.569000244140625,-24 -41.569000244140625,-24 C-41.569000244140625,-24 -41.569000244140625,-8 -41.569000244140625,-8 C-41.569000244140625,-8 -55.42599868774414,-16 -55.42599868774414,-16 C-55.42599868774414,-16 -55.42599868774414,-32 -55.42599868774414,-32z"></path><path stroke-linecap="round" stroke-linejoin="round" fill-opacity="0" stroke="rgb(0,0,0)" stroke-opacity="1" stroke-width="3" d=" M-55.42599868774414,-32 C-55.42599868774414,-32 -41.569000244140625,-24 -41.569000244140625,-24 C-41.569000244140625,-24 -41.569000244140625,-8 -41.569000244140625,-8 C-41.569000244140625,-8 -55.42599868774414,-16 -55.42599868774414,-16 C-55.42599868774414,-16 -55.42599868774414,-32 -55.42599868774414,-32z"></path></g><g opacity="1" transform="matrix(1,0,0,1,0,0)"><path fill="rgb(255,255,255)" fill-opacity="1" d=" M-27.71299934387207,-32 C-27.71299934387207,-32 -41.569000244140625,-24 -41.569000244140625,-24 C-41.569000244140625,-24 -41.569000244140625,-8 -41.569000244140625,-8 C-41.569000244140625,-8 -27.71299934387207,-16 -27.71299934387207,-16 C-27.71299934387207,-16 -27.71299934387207,-32 -27.71299934387207,-32z"></path><path stroke-linecap="round" stroke-linejoin="round" fill-opacity="0" stroke="rgb(0,0,0)" stroke-opacity="1" stroke-width="3" d=" M-27.71299934387207,-32 C-27.71299934387207,-32 -41.569000244140625,-24 -41.569000244140625,-24 C-41.569000244140625,-24 -41.569000244140625,-8 -41.569000244140625,-8 C-41.569000244140625,-8 -27.71299934387207,-16 -27.71299934387207,-16 C-27.71299934387207,-16 -27.71299934387207,-32 -27.71299934387207,-32z"></path></g><g opacity="1" transform="matrix(1,0,0,1,0,0)"><path fill="rgb(255,255,255)" fill-opacity="1" d=" M-41.569000244140625,-40 C-41.569000244140625,-40 -55.42599868774414,-32 -55.42599868774414,-32 C-55.42599868774414,-32 -41.569000244140625,-24 -41.569000244140625,-24 C-41.569000244140625,-24 -27.71299934387207,-32 -27.71299934387207,-32 C-27.71299934387207,-32 -41.569000244140625,-40 -41.569000244140625,-40z"></path><path stroke-linecap="round" stroke-linejoin="round" fill-opacity="0" stroke="rgb(0,0,0)" stroke-opacity="1" stroke-width="3" d=" M-41.569000244140625,-40 C-41.569000244140625,-40 -55.42599868774414,-32 -55.42599868774414,-32 C-55.42599868774414,-32 -41.569000244140625,-24 -41.569000244140625,-24 C-41.569000244140625,-24 -27.71299934387207,-32 -27.71299934387207,-32 C-27.71299934387207,-32 -41.569000244140625,-40 -41.569000244140625,-40z"></path></g></g><g transform="matrix(0,0,0,0,148.78500366210938,92)" opacity="1" style="display: block;"><g opacity="1" transform="matrix(1,0,0,1,0,0)"><path fill="rgb(255,255,255)" fill-opacity="1" d=" M6.927999973297119,-44 C6.927999973297119,-44 20.78499984741211,-36 20.78499984741211,-36 C20.78499984741211,-36 20.78499984741211,-20 20.78499984741211,-20 C20.78499984741211,-20 6.927999973297119,-28 6.927999973297119,-28 C6.927999973297119,-28 6.927999973297119,-44 6.927999973297119,-44z"></path><path stroke-linecap="round" stroke-linejoin="round" fill-opacity="0" stroke="rgb(0,0,0)" stroke-opacity="1" stroke-width="3" d=" M6.927999973297119,-44 C6.927999973297119,-44 20.78499984741211,-36 20.78499984741211,-36 C20.78499984741211,-36 20.78499984741211,-20 20.78499984741211,-20 C20.78499984741211,-20 6.927999973297119,-28 6.927999973297119,-28 C6.927999973297119,-28 6.927999973297119,-44 6.927999973297119,-44z"></path></g><g opacity="1" transform="matrix(1,0,0,1,0,0)"><path fill="rgb(255,255,255)" fill-opacity="1" d=" M34.64099884033203,-44 C34.64099884033203,-44 20.78499984741211,-36 20.78499984741211,-36 C20.78499984741211,-36 20.78499984741211,-20 20.78499984741211,-20 C20.78499984741211,-20 34.64099884033203,-28 34.64099884033203,-28 C34.64099884033203,-28 34.64099884033203,-44 34.64099884033203,-44z"></path><path stroke-linecap="round" stroke-linejoin="round" fill-opacity="0" stroke="rgb(0,0,0)" stroke-opacity="1" stroke-width="3" d=" M34.64099884033203,-44 C34.64099884033203,-44 20.78499984741211,-36 20.78499984741211,-36 C20.78499984741211,-36 20.78499984741211,-20 20.78499984741211,-20 C20.78499984741211,-20 34.64099884033203,-28 34.64099884033203,-28 C34.64099884033203,-28 34.64099884033203,-44 34.64099884033203,-44z"></path></g><g opacity="1" transform="matrix(1,0,0,1,0,0)"><path fill="rgb(255,255,255)" fill-opacity="1" d=" M20.78499984741211,-52 C20.78499984741211,-52 6.927999973297119,-44 6.927999973297119,-44 C6.927999973297119,-44 20.78499984741211,-36 20.78499984741211,-36 C20.78499984741211,-36 34.64099884033203,-44 34.64099884033203,-44 C34.64099884033203,-44 20.78499984741211,-52 20.78499984741211,-52z"></path><path stroke-linecap="round" stroke-linejoin="round" fill-opacity="0" stroke="rgb(0,0,0)" stroke-opacity="1" stroke-width="3" d=" M20.78499984741211,-52 C20.78499984741211,-52 6.927999973297119,-44 6.927999973297119,-44 C6.927999973297119,-44 20.78499984741211,-36 20.78499984741211,-36 C20.78499984741211,-36 34.64099884033203,-44 34.64099884033203,-44 C34.64099884033203,-44 20.78499984741211,-52 20.78499984741211,-52z"></path></g></g><g transform="matrix(0,0,0,0,128,104)" opacity="1" style="display: block;"><g opacity="1" transform="matrix(1,0,0,1,0,0)"><path fill="rgb(255,255,255)" fill-opacity="1" d=" M-13.855999946594238,-32 C-13.855999946594238,-32 0,-24 0,-24 C0,-24 0,-8 0,-8 C0,-8 -13.855999946594238,-16 -13.855999946594238,-16 C-13.855999946594238,-16 -13.855999946594238,-32 -13.855999946594238,-32z"></path><path stroke-linecap="round" stroke-linejoin="round" fill-opacity="0" stroke="rgb(0,0,0)" stroke-opacity="1" stroke-width="3" d=" M-13.855999946594238,-32 C-13.855999946594238,-32 0,-24 0,-24 C0,-24 0,-8 0,-8 C0,-8 -13.855999946594238,-16 -13.855999946594238,-16 C-13.855999946594238,-16 -13.855999946594238,-32 -13.855999946594238,-32z"></path></g><g opacity="1" transform="matrix(1,0,0,1,0,0)"><path fill="rgb(255,255,255)" fill-opacity="1" d=" M13.855999946594238,-32 C13.855999946594238,-32 0,-24 0,-24 C0,-24 0,-8 0,-8 C0,-8 13.855999946594238,-16 13.855999946594238,-16 C13.855999946594238,-16 13.855999946594238,-32 13.855999946594238,-32z"></path><path stroke-linecap="round" stroke-linejoin="round" fill-opacity="0" stroke="rgb(0,0,0)" stroke-opacity="1" stroke-width="3" d=" M13.855999946594238,-32 C13.855999946594238,-32 0,-24 0,-24 C0,-24 0,-8 0,-8 C0,-8 13.855999946594238,-16 13.855999946594238,-16 C13.855999946594238,-16 13.855999946594238,-32 13.855999946594238,-32z"></path></g><g opacity="1" transform="matrix(1,0,0,1,0,0)"><path fill="rgb(255,255,255)" fill-opacity="1" d=" M0,-40 C0,-40 -13.855999946594238,-32 -13.855999946594238,-32 C-13.855999946594238,-32 0,-24 0,-24 C0,-24 13.855999946594238,-32 13.855999946594238,-32 C13.855999946594238,-32 0,-40 0,-40z"></path><path stroke-linecap="round" stroke-linejoin="round" fill-opacity="0" stroke="rgb(0,0,0)" stroke-opacity="1" stroke-width="3" d=" M0,-40 C0,-40 -13.855999946594238,-32 -13.855999946594238,-32 C-13.855999946594238,-32 0,-24 0,-24 C0,-24 13.855999946594238,-32 13.855999946594238,-32 C13.855999946594238,-32 0,-40 0,-40z"></path></g></g><g transform="matrix(0,0,0,0,107.21499633789062,116)" opacity="1" style="display: block;"><g opacity="1" transform="matrix(1,0,0,1,0,0)"><path fill="rgb(255,255,255)" fill-opacity="1" d=" M-34.64099884033203,-20 C-34.64099884033203,-20 -20.78499984741211,-12 -20.78499984741211,-12 C-20.78499984741211,-12 -20.78499984741211,4 -20.78499984741211,4 C-20.78499984741211,4 -34.64099884033203,-4 -34.64099884033203,-4 C-34.64099884033203,-4 -34.64099884033203,-20 -34.64099884033203,-20z"></path><path stroke-linecap="round" stroke-linejoin="round" fill-opacity="0" stroke="rgb(0,0,0)" stroke-opacity="1" stroke-width="3" d=" M-34.64099884033203,-20 C-34.64099884033203,-20 -20.78499984741211,-12 -20.78499984741211,-12 C-20.78499984741211,-12 -20.78499984741211,4 -20.78499984741211,4 C-20.78499984741211,4 -34.64099884033203,-4 -34.64099884033203,-4 C-34.64099884033203,-4 -34.64099884033203,-20 -34.64099884033203,-20z"></path></g><g opacity="1" transform="matrix(1,0,0,1,0,0)"><path fill="rgb(255,255,255)" fill-opacity="1" d=" M-6.927999973297119,-20 C-6.927999973297119,-20 -20.78499984741211,-12 -20.78499984741211,-12 C-20.78499984741211,-12 -20.78499984741211,4 -20.78499984741211,4 C-20.78499984741211,4 -6.927999973297119,-4 -6.927999973297119,-4 C-6.927999973297119,-4 -6.927999973297119,-20 -6.927999973297119,-20z"></path><path stroke-linecap="round" stroke-linejoin="round" fill-opacity="0" stroke="rgb(0,0,0)" stroke-opacity="1" stroke-width="3" d=" M-6.927999973297119,-20 C-6.927999973297119,-20 -20.78499984741211,-12 -20.78499984741211,-12 C-20.78499984741211,-12 -20.78499984741211,4 -20.78499984741211,4 C-20.78499984741211,4 -6.927999973297119,-4 -6.927999973297119,-4 C-6.927999973297119,-4 -6.927999973297119,-20 -6.927999973297119,-20z"></path></g><g opacity="1" transform="matrix(1,0,0,1,0,0)"><path fill="rgb(255,255,255)" fill-opacity="1" d=" M-20.78499984741211,-28 C-20.78499984741211,-28 -34.64099884033203,-20 -34.64099884033203,-20 C-34.64099884033203,-20 -20.78499984741211,-12 -20.78499984741211,-12 C-20.78499984741211,-12 -6.927999973297119,-20 -6.927999973297119,-20 C-6.927999973297119,-20 -20.78499984741211,-28 -20.78499984741211,-28z"></path><path stroke-linecap="round" stroke-linejoin="round" fill-opacity="0" stroke="rgb(0,0,0)" stroke-opacity="1" stroke-width="3" d=" M-20.78499984741211,-28 C-20.78499984741211,-28 -34.64099884033203,-20 -34.64099884033203,-20 C-34.64099884033203,-20 -20.78499984741211,-12 -20.78499984741211,-12 C-20.78499984741211,-12 -6.927999973297119,-20 -6.927999973297119,-20 C-6.927999973297119,-20 -20.78499984741211,-28 -20.78499984741211,-28z"></path></g></g><g transform="matrix(0,0,0,0,169.56900024414062,104)" opacity="1" style="display: block;"><g opacity="1" transform="matrix(1,0,0,1,0,0)"><path fill="rgb(255,255,255)" fill-opacity="1" d=" M27.71299934387207,-32 C27.71299934387207,-32 41.569000244140625,-24 41.569000244140625,-24 C41.569000244140625,-24 41.569000244140625,-8 41.569000244140625,-8 C41.569000244140625,-8 27.71299934387207,-16 27.71299934387207,-16 C27.71299934387207,-16 27.71299934387207,-32 27.71299934387207,-32z"></path><path stroke-linecap="round" stroke-linejoin="round" fill-opacity="0" stroke="rgb(0,0,0)" stroke-opacity="1" stroke-width="3" d=" M27.71299934387207,-32 C27.71299934387207,-32 41.569000244140625,-24 41.569000244140625,-24 C41.569000244140625,-24 41.569000244140625,-8 41.569000244140625,-8 C41.569000244140625,-8 27.71299934387207,-16 27.71299934387207,-16 C27.71299934387207,-16 27.71299934387207,-32 27.71299934387207,-32z"></path></g><g opacity="1" transform="matrix(1,0,0,1,0,0)"><path fill="rgb(255,255,255)" fill-opacity="1" d=" M55.42599868774414,-32 C55.42599868774414,-32 41.569000244140625,-24 41.569000244140625,-24 C41.569000244140625,-24 41.569000244140625,-8 41.569000244140625,-8 C41.569000244140625,-8 55.42599868774414,-16 55.42599868774414,-16 C55.42599868774414,-16 55.42599868774414,-32 55.42599868774414,-32z"></path><path stroke-linecap="round" stroke-linejoin="round" fill-opacity="0" stroke="rgb(0,0,0)" stroke-opacity="1" stroke-width="3" d=" M55.42599868774414,-32 C55.42599868774414,-32 41.569000244140625,-24 41.569000244140625,-24 C41.569000244140625,-24 41.569000244140625,-8 41.569000244140625,-8 C41.569000244140625,-8 55.42599868774414,-16 55.42599868774414,-16 C55.42599868774414,-16 55.42599868774414,-32 55.42599868774414,-32z"></path></g><g opacity="1" transform="matrix(1,0,0,1,0,0)"><path fill="rgb(255,255,255)" fill-opacity="1" d=" M41.569000244140625,-40 C41.569000244140625,-40 27.71299934387207,-32 27.71299934387207,-32 C27.71299934387207,-32 41.569000244140625,-24 41.569000244140625,-24 C41.569000244140625,-24 55.42599868774414,-32 55.42599868774414,-32 C55.42599868774414,-32 41.569000244140625,-40 41.569000244140625,-40z"></path><path stroke-linecap="round" stroke-linejoin="round" fill-opacity="0" stroke="rgb(0,0,0)" stroke-opacity="1" stroke-width="3" d=" M41.569000244140625,-40 C41.569000244140625,-40 27.71299934387207,-32 27.71299934387207,-32 C27.71299934387207,-32 41.569000244140625,-24 41.569000244140625,-24 C41.569000244140625,-24 55.42599868774414,-32 55.42599868774414,-32 C55.42599868774414,-32 41.569000244140625,-40 41.569000244140625,-40z"></path></g></g><g transform="matrix(0,0,0,0,148.78500366210938,116)" opacity="1" style="display: block;"><g opacity="1" transform="matrix(1,0,0,1,0,0)"><path fill="rgb(255,255,255)" fill-opacity="1" d=" M6.927999973297119,-20 C6.927999973297119,-20 20.78499984741211,-12 20.78499984741211,-12 C20.78499984741211,-12 20.78499984741211,4 20.78499984741211,4 C20.78499984741211,4 6.927999973297119,-4 6.927999973297119,-4 C6.927999973297119,-4 6.927999973297119,-20 6.927999973297119,-20z"></path><path stroke-linecap="round" stroke-linejoin="round" fill-opacity="0" stroke="rgb(0,0,0)" stroke-opacity="1" stroke-width="3" d=" M6.927999973297119,-20 C6.927999973297119,-20 20.78499984741211,-12 20.78499984741211,-12 C20.78499984741211,-12 20.78499984741211,4 20.78499984741211,4 C20.78499984741211,4 6.927999973297119,-4 6.927999973297119,-4 C6.927999973297119,-4 6.927999973297119,-20 6.927999973297119,-20z"></path></g><g opacity="1" transform="matrix(1,0,0,1,0,0)"><path fill="rgb(255,255,255)" fill-opacity="1" d=" M34.64099884033203,-20 C34.64099884033203,-20 20.78499984741211,-12 20.78499984741211,-12 C20.78499984741211,-12 20.78499984741211,4 20.78499984741211,4 C20.78499984741211,4 34.64099884033203,-4 34.64099884033203,-4 C34.64099884033203,-4 34.64099884033203,-20 34.64099884033203,-20z"></path><path stroke-linecap="round" stroke-linejoin="round" fill-opacity="0" stroke="rgb(0,0,0)" stroke-opacity="1" stroke-width="3" d=" M34.64099884033203,-20 C34.64099884033203,-20 20.78499984741211,-12 20.78499984741211,-12 C20.78499984741211,-12 20.78499984741211,4 20.78499984741211,4 C20.78499984741211,4 34.64099884033203,-4 34.64099884033203,-4 C34.64099884033203,-4 34.64099884033203,-20 34.64099884033203,-20z"></path></g><g opacity="1" transform="matrix(1,0,0,1,0,0)"><path fill="rgb(255,255,255)" fill-opacity="1" d=" M20.78499984741211,-28 C20.78499984741211,-28 6.927999973297119,-20 6.927999973297119,-20 C6.927999973297119,-20 20.78499984741211,-12 20.78499984741211,-12 C20.78499984741211,-12 34.64099884033203,-20 34.64099884033203,-20 C34.64099884033203,-20 20.78499984741211,-28 20.78499984741211,-28z"></path><path stroke-linecap="round" stroke-linejoin="round" fill-opacity="0" stroke="rgb(0,0,0)" stroke-opacity="1" stroke-width="3" d=" M20.78499984741211,-28 C20.78499984741211,-28 6.927999973297119,-20 6.927999973297119,-20 C6.927999973297119,-20 20.78499984741211,-12 20.78499984741211,-12 C20.78499984741211,-12 34.64099884033203,-20 34.64099884033203,-20 C34.64099884033203,-20 20.78499984741211,-28 20.78499984741211,-28z"></path></g></g><g transform="matrix(0,0,0,0,128,128)" opacity="1" style="display: block;"><g opacity="1" transform="matrix(1,0,0,1,0,0)"><path fill="rgb(255,255,255)" fill-opacity="1" d=" M-13.855999946594238,-8 C-13.855999946594238,-8 0,0 0,0 C0,0 0,16 0,16 C0,16 -13.855999946594238,8 -13.855999946594238,8 C-13.855999946594238,8 -13.855999946594238,-8 -13.855999946594238,-8z"></path><path stroke-linecap="round" stroke-linejoin="round" fill-opacity="0" stroke="rgb(0,0,0)" stroke-opacity="1" stroke-width="3" d=" M-13.855999946594238,-8 C-13.855999946594238,-8 0,0 0,0 C0,0 0,16 0,16 C0,16 -13.855999946594238,8 -13.855999946594238,8 C-13.855999946594238,8 -13.855999946594238,-8 -13.855999946594238,-8z"></path></g><g opacity="1" transform="matrix(1,0,0,1,0,0)"><path fill="rgb(255,255,255)" fill-opacity="1" d=" M13.855999946594238,-8 C13.855999946594238,-8 0,0 0,0 C0,0 0,16 0,16 C0,16 13.855999946594238,8 13.855999946594238,8 C13.855999946594238,8 13.855999946594238,-8 13.855999946594238,-8z"></path><path stroke-linecap="round" stroke-linejoin="round" fill-opacity="0" stroke="rgb(0,0,0)" stroke-opacity="1" stroke-width="3" d=" M13.855999946594238,-8 C13.855999946594238,-8 0,0 0,0 C0,0 0,16 0,16 C0,16 13.855999946594238,8 13.855999946594238,8 C13.855999946594238,8 13.855999946594238,-8 13.855999946594238,-8z"></path></g><g opacity="1" transform="matrix(1,0,0,1,0,0)"><path fill="rgb(255,255,255)" fill-opacity="1" d=" M0,-16 C0,-16 -13.855999946594238,-8 -13.855999946594238,-8 C-13.855999946594238,-8 0,0 0,0 C0,0 13.855999946594238,-8 13.855999946594238,-8 C13.855999946594238,-8 0,-16 0,-16z"></path><path stroke-linecap="round" stroke-linejoin="round" fill-opacity="0" stroke="rgb(0,0,0)" stroke-opacity="1" stroke-width="3" d=" M0,-16 C0,-16 -13.855999946594238,-8 -13.855999946594238,-8 C-13.855999946594238,-8 0,0 0,0 C0,0 13.855999946594238,-8 13.855999946594238,-8 C13.855999946594238,-8 0,-16 0,-16z"></path></g></g></g></svg>